<svg version="1.1" baseProfile="full" width="576" height="432" viewBox="0 0 4320 3240"  xmlns="http://www.w3.org/2000/svg" xmlns:xlink="http://www.w3.org/1999/xlink" xmlns:ev="http://www.w3.org/2001/xml-events" >
<desc>Created by Causeway SVG engine - SharpPlot v3.71.0</desc>
<g stroke-miterlimit="100">
<desc>Paint the paper =====</desc>
 <g fill="White" >
  <rect x="0" y="0" width="4320" height="3240" />
 </g>
<desc>Border =====</desc>
<desc>Region =====</desc>
<desc>X-Axis Ticks =====</desc>
<desc>X-Axis tickmarks</desc>
 <path fill="none" stroke-width="7.2" stroke="Black" d="M400 2720L400 2764M770 2720L770 2764M1140 2720L1140 2764M1510 2720L1510 2764M1880 2720L1880 2764M2250 2720L2250 2764M2620 2720L2620 2764M2990 2720L2990 2764M3360 2720L3360 2764M3730 2720L3730 2764M4100 2720L4100 2764"/>
<desc>Y-Axis Ticks =====</desc>
<desc>Y-Axis tickmarks</desc>
 <path fill="none" stroke-width="7.2" stroke="Black" d="M400 2720L367 2720M400 2494L367 2494M400 2268L367 2268M400 2042L367 2042M400 1816L367 1816M400 1590L367 1590M400 1364L367 1364M400 1138L367 1138M400 912L367 912M400 686L367 686M400 460L367 460"/>
<desc>Axes =====</desc>
 <path fill="none" stroke-width="12" stroke="Black" d="M400 2764L400 416M356 2720L4144 2720"/>
<desc>Y-axis labels</desc>
 <g font-family="Times New Roman" font-size="80" text-anchor="end" >
  <text x="335" y="2740" >-1</text>
  <text x="335" y="2514" >-0.8</text>
  <text x="335" y="2288" >-0.6</text>
  <text x="335" y="2062" >-0.4</text>
  <text x="335" y="1836" >-0.2</text>
  <text x="335" y="1610" >0</text>
  <text x="335" y="1384" >0.2</text>
  <text x="335" y="1158" >0.4</text>
  <text x="335" y="932" >0.6</text>
  <text x="335" y="706" >0.8</text>
  <text x="335" y="480" >1</text>
 </g>
<desc>for X-axis labels</desc>
 <g font-family="Times New Roman" font-size="80" text-anchor="middle" >
  <text x="400" y="2844" >0</text>
  <text x="770" y="2844" >100</text>
  <text x="1140" y="2844" >200</text>
  <text x="1510" y="2844" >300</text>
  <text x="1880" y="2844" >400</text>
  <text x="2250" y="2844" >500</text>
  <text x="2620" y="2844" >600</text>
  <text x="2990" y="2844" >700</text>
  <text x="3360" y="2844" >800</text>
  <text x="3730" y="2844" >900</text>
  <text x="4100" y="2844" >1000</text>
 </g>
<desc>Heading, subheading and footnotes =====</desc>
<desc>Start of Line Chart ===========</desc>
<desc>Points follow ...</desc>
<desc>Line</desc>
 <g stroke-width="3" stroke="Navy" stroke-linejoin="round" stroke-linecap="round" fill="none" >
  <path d="M4100 1590L4096 1597 4093 1604 4089 1611 4085 1618 4082 1625 4078 1633 4074 1640 4070 1647 4067 1654 4063 1661 4059 1668 4056 1675 4052 1682 4048 1689 4045 1696 4041 1703 4037 1710 4033 1718 4030 1725 4026 1732 4022 1739 4019 1746 4015 1753 4011 1760 4008 1767 4004 1774 4000 1781 3996 1788 3993 1795 3989 1802 3985 1809 3982 1816 3978 1823 3974 1830 3971 1837 3967 1843 3963 1850 3959 1857 3956 1864 3952 1871 3948 1878 3945 1885 3941 1892 3937 1898 3934 1905 3930 1912 3926 1919 3922 1926 3919 1932 3915 1939 3911 1946 3908 1953 3904 1959 3900 1966 3897 1973 3893 1979 3889 1986 3885 1993 3882 1999 3878 2006 3874 2013 3871 2019 3867 2026 3863 2032 3860 2039 3856 2045 3852 2052 3848 2058 3845 2065 3841 2071 3837 2078 3834 2084 3830 2090 3826 2097 3823 2103 3819 2109 3815 2116 3811 2122 3808 2128 3804 2134 3800 2141 3797 2147 3793 2153 3789 2159 3786 2165 3782 2171 3778 2177 3774 2183 3771 2189 3767 2195 3763 2201 3760 2207 3756 2213 3752 2219 3749 2225 3745 2231 3741 2237 3737 2243 3734 2248 3730 2254 3726 2260 3723 2266 3719 2271 3715 2277 3712 2283 3708 2288 3704 2294 3700 2299 3697 2305 3693 2310 3689 2316 3686 2321 3682 2327 3678 2332 3675 2337 3671 2343 3667 2348 3663 2353 3660 2358 3656 2364 3652 2369 3649 2374 3645 2379 3641 2384 3638 2389 3634 2394 3630 2399 3626 2404 3623 2409 3619 2414 3615 2419 3612 2423 3608 2428 3604 2433 3601 2438 3597 2442 3593 2447 3589 2452 3586 2456 3582 2461 3578 2465 3575 2470 3571 2474 3567 2479 3564 2483 3560 2487 3556 2492 3552 2496 3549 2500 3545 2504 3541 2508 3538 2512 3534 2517 3530 2521 3527 2525 3523 2529 3519 2533 3515 2536 3512 2540 3508 2544 3504 2548 3501 2552 3497 2555 3493 2559 3490 2563 3486 2566 3482 2570 3478 2573 3475 2577 3471 2580 3467 2584 3464 2587 3460 2590 3456 2594 3453 2597 3449 2600 3445 2603 3441 2606 3438 2609 3434 2612 3430 2615 3427 2618 3423 2621 3419 2624 3416 2627 3412 2630 3408 2633 3404 2635 3401 2638 3397 2641 3393 2643 3390 2646 3386 2648 3382 2651 3379 2653 3375 2656 3371 2658 3367 2660 3364 2662 3360 2665 3356 2667 3353 2669 3349 2671 3345 2673 3342 2675 3338 2677 3334 2679 3330 2681 3327 2683 3323 2684 3319 2686 3316 2688 3312 2690 3308 2691 3305 2693 3301 2694 3297 2696 3293 2697 3290 2699 3286 2700 3282 2701 3279 2703 3275 2704 3271 2705 3268 2706 3264 2707 3260 2708 3256 2709 3253 2710 3249 2711 3245 2712 3242 2713 3238 2714 3234 2714 3231 2715 3227 2716 3223 2716 3219 2717 3216 2717 3212 2718 3208 2718 3205 2719 3201 2719 3197 2719 3194 2719 3190 2720 3186 2720 3182 2720 3179 2720 3175 2720 3171 2720 3168 2720 3164 2720 3160 2720 3157 2719 3153 2719 3149 2719 3145 2719 3142 2718 3138 2718 3134 2717 3131 2717 3127 2716 3123 2716 3120 2715 3116 2714 3112 2714 3108 2713 3105 2712 3101 2711 3097 2710 3094 2709 3090 2708 3086 2707 3083 2706 3079 2705 3075 2704 3071 2703 3068 2701 3064 2700 3060 2699 3057 2697 3053 2696 3049 2694 3046 2693 3042 2691 3038 2690 3034 2688 3031 2686 3027 2684 3023 2683 3020 2681 3016 2679 3012 2677 3009 2675 3005 2673 3001 2671 2997 2669 2994 2667 2990 2665 2986 2662 2983 2660 2979 2658 2975 2656 2972 2653 2968 2651 2964 2648 2960 2646 2957 2643 2953 2641 2949 2638 2946 2635 2942 2633 2938 2630 2935 2627 2931 2624 2927 2621 2923 2618 2920 2615 2916 2612 2912 2609 2909 2606 2905 2603 2901 2600 2898 2597 2894 2594 2890 2590 2886 2587 2883 2584 2879 2580 2875 2577 2872 2573 2868 2570 2864 2566 2861 2563 2857 2559 2853 2555 2849 2552 2846 2548 2842 2544 2838 2540 2835 2536 2831 2533 2827 2529 2824 2525 2820 2521 2816 2517 2812 2512 2809 2508 2805 2504 2801 2500 2798 2496 2794 2492 2790 2487 2787 2483 2783 2479 2779 2474 2775 2470 2772 2465 2768 2461 2764 2456 2761 2452 2757 2447 2753 2442 2750 2438 2746 2433 2742 2428 2738 2423 2735 2419 2731 2414 2727 2409 2724 2404 2720 2399 2716 2394 2713 2389 2709 2384 2705 2379 2701 2374 2698 2369 2694 2364 2690 2358 2687 2353 2683 2348 2679 2343 2676 2337 2672 2332 2668 2327 2664 2321 2661 2316 2657 2310 2653 2305 2650 2299 2646 2294 2642 2288 2639 2283 2635 2277 2631 2271 2627 2266 2624 2260 2620 2254 2616 2248 2613 2243 2609 2237 2605 2231 2602 2225 2598 2219 2594 2213 2590 2207 2587 2201 2583 2195 2579 2189 2576 2183 2572 2177 2568 2171 2565 2165 2561 2159 2557 2153 2553 2147 2550 2141 2546 2134 2542 2128 2539 2122 2535 2116 2531 2109 2528 2103 2524 2097 2520 2090 2516 2084 2513 2078 2509 2071 2505 2065 2502 2058 2498 2052 2494 2045 2491 2039 2487 2032 2483 2026 2479 2019 2476 2013 2472 2006 2468 1999 2465 1993 2461 1986 2457 1979 2454 1973 2450 1966 2446 1959 2442 1953 2439 1946 2435 1939 2431 1932 2428 1926 2424 1919 2420 1912 2417 1905 2413 1898 2409 1892 2405 1885 2402 1878 2398 1871 2394 1864 2391 1857 2387 1850 2383 1843 2380 1837 2376 1830 2372 1823 2368 1816 2365 1809 2361 1802 2357 1795 2354 1788 2350 1781 2346 1774 2343 1767 2339 1760 2335 1753 2331 1746 2328 1739 2324 1732 2320 1725 2317 1718 2313 1710 2309 1703 2306 1696 2302 1689 2298 1682 2294 1675 2291 1668 2287 1661 2283 1654 2280 1647 2276 1640 2272 1633 2269 1625 2265 1618 2261 1611 2257 1604 2254 1597 2250 1590 2246 1583 2243 1576 2239 1569 2235 1562 2232 1555 2228 1547 2224 1540 2220 1533 2217 1526 2213 1519 2209 1512 2206 1505 2202 1498 2198 1491 2195 1484 2191 1477 2187 1470 2183 1462 2180 1455 2176 1448 2172 1441 2169 1434 2165 1427 2161 1420 2158 1413 2154 1406 2150 1399 2146 1392 2143 1385 2139 1378 2135 1371 2132 1364 2128 1357 2124 1350 2121 1343 2117 1337 2113 1330 2109 1323 2106 1316 2102 1309 2098 1302 2095 1295 2091 1288 2087 1282 2084 1275 2080 1268 2076 1261 2072 1254 2069 1248 2065 1241 2061 1234 2058 1227 2054 1221 2050 1214 2047 1207 2043 1201 2039 1194 2035 1187 2032 1181 2028 1174 2024 1167 2021 1161 2017 1154 2013 1148 2010 1141 2006 1135 2002 1128 1998 1122 1995 1115 1991 1109 1987 1102 1984 1096 1980 1090 1976 1083 1973 1077 1969 1071 1965 1064 1961 1058 1958 1052 1954 1046 1950 1039 1947 1033 1943 1027 1939 1021 1936 1015 1932 1009 1928 1003 1924 997 1921 991 1917 985 1913 979 1910 973 1906 967 1902 961 1899 955 1895 949 1891 943 1887 937 1884 932 1880 926 1876 920 1873 914 1869 909 1865 903 1862 897 1858 892 1854 886 1850 881 1847 875 1843 870 1839 864 1836 859 1832 853 1828 848 1825 843 1821 837 1817 832 1813 827 1810 822 1806 816 1802 811 1799 806 1795 801 1791 796 1788 791 1784 786 1780 781 1776 776 1773 771 1769 766 1765 761 1762 757 1758 752 1754 747 1751 742 1747 738 1743 733 1739 728 1736 724 1732 719 1728 715 1725 710 1721 706 1717 701 1714 697 1710 693 1706 688 1702 684 1699 680 1695 676 1691 672 1688 668 1684 663 1680 659 1677 655 1673 651 1669 647 1665 644 1662 640 1658 636 1654 632 1651 628 1647 625 1643 621 1640 617 1636 614 1632 610 1628 607 1625 603 1621 600 1617 596 1614 593 1610 590 1606 586 1603 583 1599 580 1595 577 1591 574 1588 571 1584 568 1580 565 1577 562 1573 559 1569 556 1566 553 1562 550 1558 547 1554 545 1551 542 1547 539 1543 537 1540 534 1536 532 1532 529 1529 527 1525 524 1521 522 1517 520 1514 518 1510 515 1506 513 1503 511 1499 509 1495 507 1492 505 1488 503 1484 501 1480 499 1477 497 1473 496 1469 494 1466 492 1462 490 1458 489 1455 487 1451 486 1447 484 1443 483 1440 481 1436 480 1432 479 1429 477 1425 476 1421 475 1418 474 1414 473 1410 472 1406 471 1403 470 1399 469 1395 468 1392 467 1388 466 1384 466 1381 465 1377 464 1373 464 1369 463 1366 463 1362 462 1358 462 1355 461 1351 461 1347 461 1344 461 1340 460 1336 460 1332 460 1329 460 1325 460 1321 460 1318 460 1314 460 1310 460 1307 461 1303 461 1299 461 1295 461 1292 462 1288 462 1284 463 1281 463 1277 464 1273 464 1270 465 1266 466 1262 466 1258 467 1255 468 1251 469 1247 470 1244 471 1240 472 1236 473 1233 474 1229 475 1225 476 1221 477 1218 479 1214 480 1210 481 1207 483 1203 484 1199 486 1196 487 1192 489 1188 490 1184 492 1181 494 1177 496 1173 497 1170 499 1166 501 1162 503 1159 505 1155 507 1151 509 1147 511 1144 513 1140 515 1136 518 1133 520 1129 522 1125 524 1122 527 1118 529 1114 532 1110 534 1107 537 1103 539 1099 542 1096 545 1092 547 1088 550 1085 553 1081 556 1077 559 1073 562 1070 565 1066 568 1062 571 1059 574 1055 577 1051 580 1048 583 1044 586 1040 590 1036 593 1033 596 1029 600 1025 603 1022 607 1018 610 1014 614 1011 617 1007 621 1003 625 999 628 996 632 992 636 988 640 985 644 981 647 977 651 974 655 970 659 966 663 962 668 959 672 955 676 951 680 948 684 944 688 940 693 937 697 933 701 929 706 925 710 922 715 918 719 914 724 911 728 907 733 903 738 900 742 896 747 892 752 888 757 885 761 881 766 877 771 874 776 870 781 866 786 863 791 859 796 855 801 851 806 848 811 844 816 840 822 837 827 833 832 829 837 826 843 822 848 818 853 814 859 811 864 807 870 803 875 800 881 796 886 792 892 789 897 785 903 781 909 777 914 774 920 770 926 766 932 763 937 759 943 755 949 752 955 748 961 744 967 740 973 737 979 733 985 729 991 726 997 722 1003 718 1009 715 1015 711 1021 707 1027 703 1033 700 1039 696 1046 692 1052 689 1058 685 1064 681 1071 678 1077 674 1083 670 1090 666 1096 663 1102 659 1109 655 1115 652 1122 648 1128 644 1135 641 1141 637 1148 633 1154 629 1161 626 1167 622 1174 618 1181 615 1187 611 1194 607 1201 604 1207 600 1214 596 1221 592 1227 589 1234 585 1241 581 1248 578 1254 574 1261 570 1268 567 1275 563 1282 559 1288 555 1295 552 1302 548 1309 544 1316 541 1323 537 1330 533 1337 530 1343 526 1350 522 1357 518 1364 515 1371 511 1378 507 1385 504 1392 500 1399 496 1406 493 1413 489 1420 485 1427 481 1434 478 1441 474 1448 470 1455 467 1462 463 1470 459 1477 456 1484 452 1491 448 1498 444 1505 441 1512 437 1519 433 1526 430 1533 426 1540 422 1547 419 1555 415 1562 411 1569 407 1576 404 1583" />
 </g>
<desc>Reset to original origin</desc>
</g>
</svg>
